<svg width="22.509399" height="21.265137" viewBox="0 0 22.5094 21.2651" fill="none" xmlns="http://www.w3.org/2000/svg" xmlns:xlink="http://www.w3.org/1999/xlink">
	<desc>
			Created with Pixso.
	</desc>
	<defs/>
	<path id="Vector" d="M2.74 5C2.01 6.24 1.77 7.97 2.22 9.75C2.38 10.39 2.85 11.22 3.59 12.17C4.31 13.1 5.24 14.07 6.22 15.01C8.16 16.86 10.25 18.49 11.25 19.25C12.25 18.49 14.34 16.86 16.28 15.01C17.26 14.07 18.19 13.1 18.91 12.17C19.65 11.22 20.12 10.39 20.28 9.75C20.73 7.97 20.49 6.24 19.76 5C19.05 3.78 17.87 3 16.25 3C14.84 3 13.85 4.04 13.14 5.44C12.81 6.12 12.58 6.8 12.43 7.33C12.36 7.58 12.31 7.8 12.28 7.95C12.17 8.47 11.56 8.5 11.25 8.5C10.94 8.5 10.33 8.46 10.22 7.95C10.19 7.8 10.14 7.58 10.07 7.33C9.92 6.8 9.69 6.12 9.36 5.44C8.65 4.04 7.66 3 6.25 3C4.63 3 3.45 3.78 2.74 5ZM11.25 4.77C11.28 4.69 11.32 4.62 11.36 4.55C12.15 2.95 14.66 0 17.25 0C19.63 0 20.45 2.21 21.49 3.99C22.51 5.75 22.77 8.02 22.22 10.24C21.96 11.29 21.29 12.38 20.49 13.4C19.68 14.44 18.68 15.48 17.66 16.46C15.62 18.4 13.45 20.1 12.43 20.86C11.73 21.39 10.77 21.39 10.07 20.86C9.05 20.1 6.88 18.4 4.84 16.46C3.82 15.48 2.82 14.44 2.01 13.4C1.21 12.38 0.54 11.29 0.28 10.24C-0.27 8.02 -0.01 5.75 1.01 3.99C2.05 2.21 3.37 0 5.75 0C8.34 0 10.35 2.95 11.14 4.55C11.18 4.62 11.22 4.69 11.25 4.77Z" fill="#0F0F0F" fill-opacity="1.000000" fill-rule="evenodd"/>
</svg>
